<svg xmlns="http://www.w3.org/2000/svg" xmlns:xlink="http://www.w3.org/1999/xlink" id="Layer_1" data-name="Layer 1" viewBox="118 118 276 276"><defs><style>.cls-1{fill:#c4c4c4;}.cls-2{fill:#303757;}.cls-3{mask:url(#mask);}.cls-4{fill:#47a9f1;}.cls-5{fill:#7ec7ff;}.cls-6{fill:#75c1ff;}.cls-7{fill:#8dccfc;}.cls-8{fill:#bfe2f7;}.cls-9{fill:#87cbff;}.cls-10{fill:#4baef7;}.cls-11{fill:#6ebeff;}.cls-12{fill:#389be3;}</style><mask id="mask" x="169" y="185.2" width="174" height="179.4" maskUnits="userSpaceOnUse"><g id="mask0"><path class="cls-1" d="M228,185.41a2.37,2.37,0,0,1,1-.21h54a2.41,2.41,0,0,1,1,.21l36.34,16.3a2.4,2.4,0,0,1,1,.89L342,234.72a2.4,2.4,0,0,1-.16,2.83L257.85,339a2.4,2.4,0,0,1-3.7,0l-84-101.42a2.39,2.39,0,0,1-.17-2.83l20.71-32.12a2.49,2.49,0,0,1,1-.89Z"/></g></mask></defs><circle class="cls-2" cx="256" cy="256" r="138"/><path class="cls-1" d="M228,185.41a2.37,2.37,0,0,1,1-.21h54a2.4,2.4,0,0,1,1,.21l36.34,16.3a2.4,2.4,0,0,1,1,.89l20.72,32.12a2.4,2.4,0,0,1-.17,2.83L257.85,339a2.4,2.4,0,0,1-3.7,0l-84-101.42a2.39,2.39,0,0,1-.17-2.83l20.72-32.12a2.4,2.4,0,0,1,1-.89Z"/><g class="cls-3"><rect class="cls-4" x="169" y="223" width="174" height="118.2"/><rect class="cls-5" x="169" y="185.2" width="174" height="45"/><path class="cls-6" d="M256,217.6l33,43.8H223Z"/><path class="cls-7" d="M256,364.6l33-103.2H223Z"/><path class="cls-8" d="M256,217.6l-58.5-8.7L223,261.4Z"/><path class="cls-9" d="M169,236.2l28.5-27.3L223,261.4Z"/><path class="cls-4" d="M169,236.2l28.5-27.3-6.3-6.9Z"/><path class="cls-10" d="M256,217.6l58.5-8.7L289,261.4Z"/><path class="cls-11" d="M343,236.2l-28.5-27.3L289,261.4Z"/><path class="cls-12" d="M343,236.2l-28.5-27.3,6.3-6.9Z"/></g></svg>